<svg xmlns="http://www.w3.org/2000/svg" width="73" height="64" fill="none"><path d="M25.55 64c14.11 0 25.55-11.46 25.55-25.6S39.66 12.8 25.55 12.8 0 24.26 0 38.4 11.44 64 25.55 64z" fill="#cbe9e8"/><path d="M71 28c0 14.912-12.088 27-27 27S17 42.912 17 28 29.088 1 44 1s27 12.088 27 27z" stroke="#73c7c1" stroke-width="2"/><g fill="#83d4d1"><path d="M40 38c-.552 0-1.01.45-.92.996C39.55 41.86 42.018 44 45 44s5.45-2.14 5.92-5.004c.1-.545-.367-.996-.92-.996H40z"/><path opacity=".36" d="M58.63 34.857c1.7 0 3.08-.92 3.08-2.057s-1.38-2.057-3.08-2.057-3.08.92-3.08 2.057 1.38 2.057 3.08 2.057zm-28.232 0c1.984 0 3.593-.92 3.593-2.057s-1.6-2.057-3.593-2.057-3.593.92-3.593 2.057 1.6 2.057 3.593 2.057z"/><ellipse cx="31.191" cy="27.334" rx="1.991" ry="2"/><ellipse cx="56.409" cy="27.334" rx="1.991" ry="2"/></g></svg>